<svg width="31" height="30" viewBox="0 0 31 30" fill="none" xmlns="http://www.w3.org/2000/svg">
<path d="M26.9699 3.87375C26.0231 2.9575 24.8839 2.5 23.5509 2.5H7.42184C6.08884 2.5 4.94959 2.9575 4.00279 3.87375C3.056 4.79 2.58325 5.8925 2.58325 7.1825V22.7913C2.58325 24.0812 3.056 25.1837 4.00279 26.1C4.94959 27.0162 6.08884 27.4738 7.42184 27.4738H11.1858C11.4312 27.4738 11.6159 27.465 11.7399 27.4487C11.8841 27.4208 12.0144 27.3463 12.1093 27.2375C12.232 27.1125 12.294 26.9312 12.294 26.6937L12.285 25.5875C12.2798 24.8825 12.2772 24.325 12.2772 23.9125L11.8897 23.9775C11.6443 24.0212 11.3343 24.04 10.9584 24.035C10.5666 24.028 10.1761 23.99 9.79075 23.9212C9.38052 23.8479 8.99435 23.6808 8.66442 23.4338C8.31889 23.1808 8.06117 22.832 7.92559 22.4338L7.75767 22.0588C7.61614 21.7629 7.43833 21.4847 7.22809 21.23C6.98783 20.9263 6.74371 20.7213 6.497 20.6125L6.38075 20.5312C6.29969 20.4751 6.22596 20.4096 6.16117 20.3363C6.09929 20.2682 6.04834 20.1915 6.01004 20.1087C5.97646 20.0325 6.00488 19.97 6.094 19.9212C6.18442 19.8713 6.34588 19.8475 6.58225 19.8475L6.91809 19.8975C7.14154 19.94 7.41925 20.07 7.74863 20.2863C8.08195 20.5062 8.3604 20.7953 8.56367 21.1325C8.822 21.5763 9.132 21.915 9.49625 22.1488C9.8605 22.3813 10.2273 22.4987 10.5968 22.4987C10.9662 22.4987 11.2852 22.4713 11.5552 22.4175C11.8162 22.3653 12.0699 22.283 12.3108 22.1725C12.4115 21.4475 12.6854 20.8875 13.1336 20.4975C12.5528 20.4424 11.9772 20.3446 11.4118 20.205C10.86 20.0583 10.3293 19.8454 9.83209 19.5712C9.31186 19.2972 8.85236 18.9268 8.47971 18.4812C8.12192 18.0475 7.82742 17.4788 7.5975 16.775C7.36888 16.07 7.25392 15.2563 7.25392 14.335C7.25392 13.0238 7.69567 11.9075 8.58046 10.985C8.16713 10 8.20588 8.89375 8.698 7.67C9.0235 7.57125 9.50529 7.645 10.1434 7.88875C10.7815 8.1325 11.249 8.34125 11.5461 8.51375C11.8432 8.68875 12.0809 8.835 12.2604 8.95375C13.3105 8.67094 14.3957 8.52878 15.4857 8.53125C16.5953 8.53125 17.6699 8.6725 18.7123 8.95375L19.3504 8.56375C19.8412 8.27857 20.3589 8.03916 20.8965 7.84875C21.4907 7.63125 21.9428 7.5725 22.2579 7.67C22.7617 8.895 22.8056 10 22.391 10.9862C23.2758 11.9075 23.7188 13.0238 23.7188 14.3363C23.7188 15.2575 23.6038 16.0737 23.3739 16.7825C23.1453 17.4925 22.8482 18.0612 22.484 18.49C22.1047 18.9299 21.6433 19.2967 21.1238 19.5712C20.5813 19.8637 20.0543 20.075 19.5441 20.205C18.9787 20.3451 18.4031 20.4433 17.8223 20.4988C18.4036 20.9862 18.6955 21.755 18.6955 22.8063V26.6937C18.6955 26.8775 18.7226 27.0262 18.7795 27.14C18.8056 27.1948 18.8428 27.244 18.889 27.2845C18.9351 27.3251 18.9893 27.3563 19.0481 27.3762C19.1721 27.4187 19.2806 27.4463 19.3762 27.4562C19.4718 27.4688 19.6087 27.4725 19.787 27.4725H23.5509C24.8839 27.4725 26.0231 27.015 26.9699 26.0987C27.9154 25.1838 28.3895 24.08 28.3895 22.79V7.1825C28.3895 5.8925 27.9167 4.79 26.9699 3.87375Z" fill="#E8D5B5"/>
</svg>
